<?xml version="1.0" encoding="UTF-8" standalone="no"?>
<!DOCTYPE svg PUBLIC "-//W3C//DTD SVG 1.1//EN" "http://www.w3.org/Graphics/SVG/1.1/DTD/svg11.dtd">
<!-- Created with Vectornator (http://vectornator.io/) -->
<svg height="100%" stroke-miterlimit="10" style="fill-rule:nonzero;clip-rule:evenodd;stroke-linecap:round;stroke-linejoin:round;" version="1.1" viewBox="0 0 792 612" width="100%" xml:space="preserve" xmlns="http://www.w3.org/2000/svg" xmlns:vectornator="http://vectornator.io" xmlns:xlink="http://www.w3.org/1999/xlink">
<defs/>
<g id="Layer-2" vectornator:layerName="Layer 2">
<path d="M437.985 124.028C260.368 113.702 194.2 152.409 173.633 194.332C164.072 213.822 105.488 307.777 113.456 404.531C116.262 438.605 173.633 497.772 282.631 536.786C337.117 556.289 432.052 501.513 472.202 464.081C536.766 403.888 553.91 372.677 540.882 292.702C522.823 181.837 490.419 127.076 437.985 124.028Z" fill="#000205" fill-rule="nonzero" opacity="1" stroke="none" vectornator:layerName="Curve 1"/>
<g opacity="1" vectornator:layerName="Curve 1">
<path d="M346.281 166.094C341.653 165.965 337.01 166.142 332.406 166.5C322.796 167.247 313.231 168.819 303.844 171C288.154 174.645 272.869 180.246 258.719 187.969C244.624 195.661 231.675 205.405 220.406 216.844C202.434 235.086 188.827 257.331 179.594 281.156C176.445 289.28 173.785 297.606 171.688 306.062C170.444 311.075 169.328 316.182 168.688 321.312C168.333 324.051 170.261 326.552 173 326.906C175.739 327.261 178.239 325.332 178.594 322.594C179.326 317.422 180.57 312.284 181.938 307.25C183.985 299.712 186.508 292.304 189.438 285.062C203.319 250.747 226.743 220.633 259.031 201.906C273.27 193.648 288.81 187.786 304.844 184.125C314.199 181.989 323.764 180.49 333.344 179.875C340.989 179.384 348.745 179.447 356.312 180.75C364.707 182.195 373.595 185.322 379.094 192.188C387.628 202.842 384.472 218.343 379.938 229.969C378.998 232.377 377.944 234.739 376.812 237.062C375.383 239.997 373.817 242.846 372.156 245.656C370.361 248.695 368.448 251.662 366.438 254.562C357.068 268.08 345.852 280.28 333.594 291.219C317.368 305.698 299.225 318.057 280.062 328.312C269.489 333.971 258.592 338.948 247.438 343.344C243.731 344.804 239.959 346.186 236.188 347.469C235.798 347.601 235.421 347.711 235.031 347.844C234.158 348.141 233.119 348.405 232.281 348.812C232.006 348.947 231.676 349.024 231.469 349.25C230.548 350.254 229.776 351.395 228.938 352.469C228.843 352.589 228.821 352.862 228.781 353C228.641 353.485 228.502 353.98 228.375 354.469C227.93 356.183 227.553 357.917 227.219 359.656C225.82 366.941 225.244 374.44 225.812 381.844C226.201 386.908 227.13 391.951 228.812 396.75C235.625 416.178 253.175 429.732 271.25 438.156C274.624 439.729 278.089 441.152 281.594 442.406C287.968 444.686 294.583 446.535 301.312 447.375C304.645 447.791 308.191 448.058 311.469 447.156C314.132 446.426 315.699 443.663 314.969 441C314.238 438.337 311.475 436.769 308.812 437.5C307.584 437.835 306.188 437.732 304.938 437.625C302.79 437.442 300.672 437.1 298.562 436.656C292.032 435.284 285.646 433.098 279.531 430.438C276.625 429.173 273.783 427.768 271 426.25C257.256 418.754 243.748 407.532 239.031 392.031C237.016 385.407 236.692 378.368 237.25 371.5C237.595 367.256 238.327 362.942 239.438 358.781C239.594 358.73 239.75 358.676 239.906 358.625C241.9 357.978 243.898 357.321 245.875 356.625C260.692 351.409 275.069 345.058 288.969 337.75C312.783 325.229 335.056 309.401 354.375 290.656C367.814 277.617 380.001 262.908 388.594 246.188C389.98 243.49 391.268 240.736 392.438 237.938C398.764 222.806 402.184 204.407 394.062 189.25C392.928 187.133 391.587 185.138 390.062 183.281C382.621 174.219 371.404 169.488 360.094 167.469C355.537 166.655 350.909 166.222 346.281 166.094Z" fill="#fefefe" stroke="none"/>
</g>
<g opacity="1" vectornator:layerName="Curve 2">
<path d="M234.375 254.844C232.221 254.909 230.203 256.239 229.375 258.375C224.1 271.971 219.492 285.852 215.188 299.781C209.697 317.547 204.863 335.528 201.438 353.812C199.801 362.548 198.584 371.375 198.062 380.25C197.561 388.776 197.729 397.371 199.5 405.75C200.171 408.905 203.282 410.921 206.438 410.25C209.593 409.579 211.609 406.468 210.938 403.312C209.242 395.395 209.229 387.235 209.781 379.188C210.34 371.04 211.508 362.938 212.969 354.906C216.371 336.194 221.3 317.747 226.938 299.594C230.825 287.075 234.954 274.603 239.688 262.375C240.791 259.527 239.379 256.323 236.531 255.219C235.819 254.943 235.093 254.822 234.375 254.844Z" fill="#fefefe" stroke="none"/>
</g>
<g opacity="1" vectornator:layerName="Curve 8">
<path d="M345.031 315.562C343.075 315.459 341.161 316.534 340.25 318.406C338.843 321.299 337.696 324.335 336.656 327.375C335.076 331.996 333.812 336.707 333.031 341.531C331.872 348.69 331.756 356.227 334.031 363.188C335.076 366.384 336.648 369.439 338.719 372.094C342.385 376.794 347.026 379.558 353.125 379.125C354.973 378.994 356.794 378.571 358.531 377.938C360.341 377.278 362.107 376.388 363.688 375.281C366.083 373.59 366.629 370.27 364.938 367.875C363.246 365.48 359.958 364.933 357.562 366.625C357.625 366.584 357.438 366.71 357.375 366.75C357.221 366.849 357.066 366.94 356.906 367.031C356.403 367.32 355.88 367.558 355.344 367.781C353.913 368.377 352.422 368.726 350.875 368.5C349.564 368.308 348.535 367.304 347.688 366.375C345.989 364.515 344.749 362.282 343.938 359.906C342.241 354.942 342.26 349.495 342.906 344.344C343.535 339.336 344.827 334.412 346.5 329.656C347.317 327.333 348.197 324.996 349.281 322.781C350.496 320.285 349.465 317.278 346.969 316.062C346.345 315.759 345.683 315.597 345.031 315.562Z" fill="#fefefe" stroke="none"/>
</g>
<g opacity="1" vectornator:layerName="Curve 4">
<path d="M374.188 309.375C372.267 309.764 370.664 311.272 370.25 313.312C365.792 335.234 360.364 357.001 354.312 378.531C348.785 398.198 342.745 417.799 335 436.719C326.732 456.916 316.727 476.382 305.406 495.031C303.886 497.539 304.68 500.792 307.188 502.312C309.695 503.833 312.98 503.039 314.5 500.531C326.088 481.389 336.317 461.435 344.719 440.688C352.939 420.389 359.23 399.303 364.969 378.188C370.62 357.394 375.841 336.435 380.125 315.312C380.677 312.592 378.908 309.927 376.188 309.375C375.507 309.237 374.828 309.245 374.188 309.375Z" fill="#fefefe" stroke="none"/>
</g>
<g opacity="1" vectornator:layerName="Curve 5">
<path d="M430.281 189.375C428.351 189.641 426.664 191.031 426.125 193.031C410.958 249.326 395.792 305.611 380.625 361.906C379.907 364.573 381.49 367.313 384.156 368.031C386.823 368.75 389.563 367.198 390.281 364.531C405.449 308.237 420.614 251.92 435.781 195.625C436.5 192.959 434.948 190.218 432.281 189.5C431.615 189.32 430.925 189.286 430.281 189.375Z" fill="#fefefe" stroke="none"/>
</g>
<g opacity="1" vectornator:layerName="Curve 6">
<path d="M431.594 287.406C430.239 287.51 428.923 288.137 427.969 289.25C415.644 303.681 403.465 318.239 391.125 332.656C389.318 334.764 389.58 337.911 391.688 339.719C393.795 341.526 396.974 341.295 398.781 339.188C411.151 324.795 423.647 310.535 436.031 296.156C437.94 293.93 437.695 290.565 435.469 288.656C434.356 287.702 432.949 287.302 431.594 287.406Z" fill="#fefefe" stroke="none"/>
</g>
<g opacity="1" vectornator:layerName="Curve 7">
<path d="M395.25 335.688C393.981 335.902 392.804 336.618 392 337.75C390.392 340.013 390.924 343.142 393.188 344.75C399.354 349.155 405.407 353.735 411.562 358.156C413.953 359.855 417.27 359.297 418.969 356.906C420.667 354.516 420.109 351.198 417.719 349.5C411.518 345.143 405.189 340.936 399 336.562C397.868 335.759 396.519 335.473 395.25 335.688Z" fill="#fefefe" stroke="none"/>
</g>
<g opacity="1" vectornator:layerName="Oval 2">
<path d="M305.688 348.844C303.192 349.336 301.942 355.239 283.594 369.875C281.569 370.026 279.788 371.376 279.188 373.406C279.174 373.416 279.17 373.427 279.156 373.438C279.15 373.458 279.162 373.479 279.156 373.5C279.144 373.546 279.105 373.578 279.094 373.625C279.109 373.8 279.11 373.828 279.125 374C279.006 374.716 279.039 375.393 279.219 376.062C280.916 398.876 276.921 392.609 281.438 400.312C282.514 402.149 283.858 403.853 285.469 405.25C286.689 406.308 288.054 407.188 289.531 407.844C290.787 408.401 292.11 408.79 293.469 409C301.908 410.305 309.497 404.56 314.125 398.031C317.019 393.949 319.062 389.296 320.344 384.469C322.648 375.791 322.693 365.638 318.031 357.688C316.954 355.851 315.611 354.147 314 352.75C312.78 351.692 311.414 350.812 309.938 350.156C307.703 349.165 306.587 348.666 305.688 348.844ZM304.531 358.906C305.361 359.034 306.165 359.356 306.938 359.906C307.511 360.315 308.025 360.83 308.469 361.375C309.221 362.298 309.791 363.342 310.25 364.438C312.531 369.881 312.173 376.312 310.688 381.906C309.82 385.172 308.506 388.334 306.688 391.188C305.605 392.886 304.325 394.476 302.844 395.844C300.14 398.339 295.966 400.539 292.531 398.094C291.852 397.61 291.279 396.979 290.781 396.312C290.044 395.326 290.768 396.307 288.812 376.031C288.811 376.013 288.814 376.018 288.812 376C293.356 365.976 291.33 368.854 293.531 365.75C294.653 364.168 295.936 362.702 297.438 361.469C299.414 359.845 302.041 358.524 304.531 358.906Z" fill="#fefefe" stroke="none"/>
</g>
<path d="M439.311 317.87C441.335 310.247 445.331 304.007 449.978 300.367C453.689 297.459 457.816 296.209 461.686 297.237C470.402 299.552 474.517 312.542 470.876 326.252C467.236 339.962 457.218 349.199 448.502 346.884C439.785 344.57 435.67 331.579 439.311 317.87Z" fill="none" opacity="1" stroke="#fefefe" stroke-linecap="butt" stroke-linejoin="round" stroke-width="10" vectornator:layerName="Oval 3"/>
</g>
</svg>
