<?xml version="1.0" encoding="UTF-8" standalone="no"?>
<!DOCTYPE svg PUBLIC "-//W3C//DTD SVG 1.1//EN" "http://www.w3.org/Graphics/SVG/1.1/DTD/svg11.dtd">
<!-- Created with Vectornator (http://vectornator.io/) -->
<svg height="100%" stroke-miterlimit="10" style="fill-rule:nonzero;clip-rule:evenodd;stroke-linecap:round;stroke-linejoin:round;" version="1.1" viewBox="0 0 792 612" width="100%" xml:space="preserve" xmlns="http://www.w3.org/2000/svg" xmlns:vectornator="http://vectornator.io" xmlns:xlink="http://www.w3.org/1999/xlink">
<defs/>
<g id="Layer-2" vectornator:layerName="Layer 2">
<g opacity="1" vectornator:layerName="Curve 1">
<path d="M391 121.875C370.845 121.67 350.686 122.17 330.594 123.75C309.436 125.413 288.278 128.258 267.625 133.219C249.886 137.479 232.344 143.312 216.281 152.062C205.28 158.056 194.983 165.482 186.5 174.75C182.538 179.079 178.977 183.785 176 188.844C173.961 192.309 172.277 195.958 170.375 199.5C166.436 206.835 162.431 214.157 158.625 221.562C137.795 262.095 121.009 305.467 114.719 350.812C112.874 364.109 111.974 377.544 112.25 390.969C112.312 393.994 112.44 397.011 112.625 400.031C112.885 404.277 113.263 408.397 114.438 412.5C116.534 419.826 120.217 426.672 124.406 433C130.449 442.128 137.743 450.394 145.562 458.031C158.242 470.415 172.406 481.238 187.219 490.938C207.099 503.956 228.25 514.996 250.031 524.469C257.946 527.911 265.955 531.144 274.031 534.188C278.537 535.886 283.056 537.681 287.719 538.906C292.639 540.199 297.705 540.921 302.781 541.219C312.143 541.768 321.536 540.909 330.75 539.25C345.251 536.64 359.28 532.018 372.938 526.562C389.104 520.104 404.682 512.034 419.625 503.125C434.738 494.115 449.352 484.141 462.906 472.906C468.625 468.166 474.059 463.118 479.438 458C484.573 453.113 489.636 448.162 494.594 443.094C512.639 424.646 529.899 404.245 538.625 379.594C548.721 351.072 545.954 320.181 541.125 290.906C539.236 279.453 537.103 268.029 534.625 256.688C532.709 247.919 530.584 239.182 528.188 230.531C526.366 223.958 524.371 217.431 522.188 210.969C520.442 205.803 518.571 200.682 516.531 195.625C506.097 169.764 490.375 142.429 464.219 130.062C460.885 128.486 464.225 130.058 438.031 123.5C438.014 123.499 438.017 123.531 438 123.531C411.131 122.309 420.121 122.6 411.156 122.312C404.444 122.097 397.718 121.943 391 121.875ZM369.5 122.969C384.235 122.713 369.58 122.962 437.906 124.531C437.923 124.534 437.92 124.561 437.938 124.562C456.539 128.111 450.524 126.055 456.562 128.094C473.199 133.711 486.447 145.81 496.469 159.938C503.214 169.446 508.63 179.878 513.25 190.562C518.704 203.177 523.067 216.245 526.781 229.469C529.05 237.545 531.07 245.69 532.906 253.875C535.291 264.506 537.372 275.2 539.219 285.938C544.502 316.653 548.261 349.202 537.625 379.25C528.952 403.753 511.779 424.007 493.844 442.344C488.588 447.717 483.202 452.952 477.75 458.125C472.228 463.364 466.65 468.529 460.75 473.344C447.652 484.033 433.608 493.565 419.094 502.219C403.837 511.316 387.939 519.438 371.438 526.031C358.23 531.308 344.58 535.694 330.562 538.219C320.802 539.977 310.814 540.87 300.906 540.062C295.945 539.658 291 538.805 286.219 537.406C281.647 536.069 277.2 534.286 272.75 532.594C264.733 529.545 256.791 526.292 248.938 522.844C227.748 513.542 207.151 502.745 187.781 490.062C173.024 480.4 158.914 469.618 146.281 457.281C138.513 449.695 131.253 441.504 125.25 432.438C121.336 426.526 117.909 420.193 115.781 413.406C114.381 408.941 113.941 404.618 113.656 399.969C113.472 396.963 113.343 393.949 113.281 390.938C112.995 377.076 113.968 363.219 115.938 349.5C122.445 304.181 139.404 260.887 160.344 220.406C163.888 213.554 167.601 206.796 171.25 200C173.383 196.027 175.291 191.937 177.656 188.094C180.728 183.102 184.341 178.437 188.375 174.188C196.059 166.094 205.181 159.478 214.875 154C231.352 144.689 249.53 138.594 267.875 134.188C301.071 126.214 335.434 123.559 369.5 122.969Z" fill="#000205" stroke="none"/>
</g>
<g opacity="1" vectornator:layerName="Curve 1">
<path d="M347.594 178.875C343.15 178.799 338.697 178.974 334.281 179.344C325.609 180.069 316.956 181.462 308.469 183.375C293.27 186.8 278.457 192.127 264.719 199.5C251.045 206.838 238.468 216.179 227.5 227.156C209.889 244.782 196.523 266.354 187.375 289.469C184.074 297.81 181.312 306.354 179.156 315.062C178.07 319.453 177.051 323.914 176.469 328.406C176.433 328.682 176.631 328.933 176.906 328.969C177.182 329.004 177.433 328.807 177.469 328.531C178.103 323.629 179.246 318.782 180.469 314C182.567 305.792 185.195 297.721 188.312 289.844C197.411 266.857 210.704 245.402 228.219 227.875C239.118 216.968 251.631 207.666 265.219 200.375C278.877 193.046 293.578 187.778 308.688 184.375C318.34 182.201 328.213 180.672 338.094 180.094C346.082 179.626 354.177 179.794 362.062 181.25C371.588 183.009 381.24 186.895 387.5 194.594C398.048 207.565 394.873 225.896 389.094 240.188C388.224 242.338 387.262 244.443 386.25 246.531C384.965 249.184 383.567 251.791 382.094 254.344C373.462 269.295 362.126 282.623 349.719 294.562C329.793 313.736 306.618 329.568 281.969 342.031C271.738 347.204 261.195 351.844 250.438 355.812C247.376 356.942 244.315 358.034 241.219 359.062C240.828 359.192 240.422 359.339 240.031 359.469C239.305 359.71 237.848 359.942 237.344 360.594C237.224 360.749 237.208 361.132 237.156 361.312C237.01 361.818 236.851 362.334 236.719 362.844C236.275 364.555 235.891 366.263 235.562 368C234.32 374.574 233.778 381.319 234.25 388C234.577 392.622 235.426 397.237 236.938 401.625C243.183 419.75 259.84 432.507 276.594 440.438C279.828 441.968 283.138 443.368 286.5 444.594C292.545 446.797 298.826 448.602 305.219 449.438C307.928 449.792 310.912 450.109 313.594 449.375C313.877 449.297 314.046 449.002 313.969 448.719C313.891 448.436 313.595 448.266 313.312 448.344C309.987 449.258 305.766 448.525 302.5 447.938C295.461 446.672 288.595 444.431 282 441.688C263.36 433.932 243.818 420.2 237.531 400.062C235.384 393.184 234.848 385.884 235.281 378.719C235.638 372.826 236.538 366.816 238.281 361.156C238.366 361.127 238.446 361.122 238.531 361.094C238.751 361.02 238.968 360.948 239.188 360.875C239.969 360.615 240.781 360.354 241.562 360.094C244.67 359.061 247.741 357.915 250.812 356.781C263.051 352.266 274.985 346.912 286.531 340.844C310.853 328.063 333.631 312 353.156 292.625C365.253 280.622 376.299 267.21 384.5 252.219C386.123 249.251 387.616 246.225 388.969 243.125C395.595 227.939 399.74 207.985 388.312 193.938C381.583 185.665 371.091 181.689 360.844 180C356.461 179.278 352.037 178.951 347.594 178.875Z" fill="#000205" stroke="none"/>
</g>
<g opacity="1" vectornator:layerName="Curve 2">
<path d="M234.719 259.906C234.46 259.806 234.163 259.929 234.062 260.188C229.056 273.102 224.69 286.273 220.594 299.5C214.971 317.656 210.051 336.053 206.594 354.75C205.018 363.272 203.846 371.908 203.344 380.562C202.877 388.614 203.006 396.745 204.688 404.656C204.749 404.943 205.026 405.123 205.312 405.062C205.599 405.001 205.78 404.693 205.719 404.406C204.055 396.588 203.915 388.581 204.375 380.625C204.893 371.672 206.187 362.783 207.812 353.969C211.19 335.652 216.062 317.596 221.562 299.812C225.647 286.607 230.003 273.456 235 260.562C235.1 260.304 234.978 260.007 234.719 259.906Z" fill="#000205" stroke="none"/>
</g>
<g opacity="1" vectornator:layerName="Curve 8">
<path d="M344.969 320.156C344.719 320.035 344.434 320.125 344.312 320.375C342.829 323.424 341.648 326.657 340.594 329.875C338.982 334.795 337.757 339.849 337.188 345C336.572 350.567 336.721 356.363 338.5 361.719C339.542 364.855 341.164 367.785 343.375 370.25C345.927 373.095 348.879 374.66 352.781 374.375C354.187 374.272 355.554 373.953 356.875 373.469C358.288 372.951 359.673 372.244 360.906 371.375C361.146 371.206 361.2 370.896 361.031 370.656C360.862 370.417 360.552 370.362 360.312 370.531C358.961 371.488 357.386 372.191 355.812 372.688C354.535 373.091 353.187 373.343 351.844 373.344C348.166 373.345 345.451 371.297 343.25 368.5C341.296 366.018 339.945 363.128 339.094 360.094C337.484 354.357 337.66 348.246 338.562 342.406C339.312 337.556 340.587 332.781 342.219 328.156C343.096 325.67 344.064 323.185 345.219 320.812C345.34 320.563 345.218 320.278 344.969 320.156Z" fill="#000205" stroke="none"/>
</g>
<g opacity="1" vectornator:layerName="Curve 4">
<path d="M374.938 314.156C374.665 314.101 374.399 314.259 374.344 314.531C370.079 335.529 364.894 356.376 359.219 377.031C353.481 397.914 347.208 418.771 339.031 438.844C330.703 459.289 320.597 478.973 309.156 497.844C309.004 498.095 309.062 498.41 309.312 498.562C309.563 498.715 309.91 498.626 310.062 498.375C321.53 479.455 331.658 459.719 340 439.219C348.184 419.105 354.481 398.238 360.219 377.312C365.89 356.632 371.045 335.77 375.312 314.75C375.368 314.478 375.21 314.212 374.938 314.156Z" fill="#000205" stroke="none"/>
</g>
<g opacity="1" vectornator:layerName="Curve 5">
<path d="M431.094 193.844C430.827 193.772 430.541 193.921 430.469 194.188C415.301 250.482 400.136 306.799 384.969 363.094C384.897 363.36 385.077 363.616 385.344 363.688C385.61 363.759 385.866 363.61 385.938 363.344C401.105 307.049 416.27 250.763 431.438 194.469C431.509 194.202 431.36 193.916 431.094 193.844Z" fill="#000205" stroke="none"/>
</g>
<g opacity="1" vectornator:layerName="Curve 6">
<path d="M432.344 292.312C432.121 292.122 431.816 292.121 431.625 292.344C419.274 306.751 406.915 321.188 394.562 335.594C394.382 335.804 394.414 336.101 394.625 336.281C394.836 336.462 395.163 336.461 395.344 336.25C407.699 321.847 420.049 307.464 432.406 293.062C432.597 292.84 432.566 292.503 432.344 292.312Z" fill="#000205" stroke="none"/>
</g>
<g opacity="1" vectornator:layerName="Curve 7">
<path d="M395.281 335.531C395.076 335.344 394.781 335.357 394.594 335.562C394.407 335.768 394.42 336.094 394.625 336.281C401.185 342.252 407.723 348.247 414.281 354.219C414.498 354.416 414.834 354.404 415.031 354.188C415.229 353.971 415.217 353.635 415 353.438C408.437 347.471 401.843 341.499 395.281 335.531Z" fill="#000205" stroke="none"/>
</g>
</g>
<g id="Layer-1" vectornator:layerName="Layer 1">
<path d="M439.311 317.87C441.335 310.247 445.331 304.007 449.978 300.367C453.689 297.459 457.816 296.209 461.686 297.237C470.402 299.552 474.517 312.542 470.876 326.252C467.236 339.962 457.218 349.199 448.502 346.884C439.785 344.57 435.67 331.579 439.311 317.87Z" fill="none" opacity="1" stroke="#000205" stroke-linecap="butt" stroke-linejoin="round" stroke-width="1" vectornator:layerName="Oval 3"/>
<path d="M287.279 365.857C289.303 358.234 293.299 351.994 297.946 348.354C301.657 345.446 305.784 344.196 309.654 345.224C318.37 347.539 322.485 360.529 318.844 374.239C315.204 387.949 305.186 397.186 296.47 394.871C287.753 392.557 283.638 379.566 287.279 365.857Z" fill="none" opacity="1" stroke="#000205" stroke-linecap="butt" stroke-linejoin="round" stroke-width="1" vectornator:layerName="Oval 4"/>
</g>
</svg>
