<?xml version="1.0" encoding="UTF-8" standalone="no"?>
<!DOCTYPE svg PUBLIC "-//W3C//DTD SVG 1.1//EN" "http://www.w3.org/Graphics/SVG/1.1/DTD/svg11.dtd">
<!-- Created with Vectornator (http://vectornator.io/) -->
<svg height="100%" stroke-miterlimit="10" style="fill-rule:nonzero;clip-rule:evenodd;stroke-linecap:round;stroke-linejoin:round;" version="1.1" viewBox="0 0 792 612" width="100%" xml:space="preserve" xmlns="http://www.w3.org/2000/svg" xmlns:vectornator="http://vectornator.io" xmlns:xlink="http://www.w3.org/1999/xlink">
<defs/>
<g id="Layer-2" vectornator:layerName="Layer 2">
<g opacity="1" vectornator:layerName="Curve 1">
<path d="M391 121.875C370.845 121.67 350.686 122.17 330.594 123.75C309.436 125.413 288.278 128.258 267.625 133.219C249.886 137.479 232.344 143.312 216.281 152.062C205.28 158.056 194.983 165.482 186.5 174.75C182.538 179.079 178.977 183.785 176 188.844C173.961 192.309 172.277 195.958 170.375 199.5C166.436 206.835 162.431 214.157 158.625 221.562C137.795 262.095 121.009 305.467 114.719 350.812C112.874 364.109 111.974 377.544 112.25 390.969C112.312 393.994 112.44 397.011 112.625 400.031C112.885 404.277 113.263 408.397 114.438 412.5C116.534 419.826 120.217 426.672 124.406 433C130.449 442.128 137.743 450.394 145.562 458.031C158.242 470.415 172.406 481.238 187.219 490.938C207.099 503.956 228.25 514.996 250.031 524.469C257.946 527.911 265.955 531.144 274.031 534.188C278.537 535.886 283.056 537.681 287.719 538.906C292.639 540.199 297.705 540.921 302.781 541.219C312.143 541.768 321.536 540.909 330.75 539.25C345.251 536.64 359.28 532.018 372.938 526.562C389.104 520.104 404.682 512.034 419.625 503.125C434.738 494.115 449.352 484.141 462.906 472.906C468.625 468.166 474.059 463.118 479.438 458C484.573 453.113 489.636 448.162 494.594 443.094C512.639 424.646 529.899 404.245 538.625 379.594C548.721 351.072 545.954 320.181 541.125 290.906C539.236 279.453 537.103 268.029 534.625 256.688C532.709 247.919 530.584 239.182 528.188 230.531C526.366 223.958 524.371 217.431 522.188 210.969C520.442 205.803 518.571 200.682 516.531 195.625C506.097 169.764 490.375 142.429 464.219 130.062C460.885 128.486 464.225 130.058 438.031 123.5C438.014 123.499 438.017 123.531 438 123.531C411.131 122.309 420.121 122.6 411.156 122.312C404.444 122.097 397.718 121.943 391 121.875ZM369.5 122.969C384.235 122.713 369.58 122.962 437.906 124.531C437.923 124.534 437.92 124.561 437.938 124.562C456.539 128.111 450.524 126.055 456.562 128.094C473.199 133.711 486.447 145.81 496.469 159.938C503.214 169.446 508.63 179.878 513.25 190.562C518.704 203.177 523.067 216.245 526.781 229.469C529.05 237.545 531.07 245.69 532.906 253.875C535.291 264.506 537.372 275.2 539.219 285.938C544.502 316.653 548.261 349.202 537.625 379.25C528.952 403.753 511.779 424.007 493.844 442.344C488.588 447.717 483.202 452.952 477.75 458.125C472.228 463.364 466.65 468.529 460.75 473.344C447.652 484.033 433.608 493.565 419.094 502.219C403.837 511.316 387.939 519.438 371.438 526.031C358.23 531.308 344.58 535.694 330.562 538.219C320.802 539.977 310.814 540.87 300.906 540.062C295.945 539.658 291 538.805 286.219 537.406C281.647 536.069 277.2 534.286 272.75 532.594C264.733 529.545 256.791 526.292 248.938 522.844C227.748 513.542 207.151 502.745 187.781 490.062C173.024 480.4 158.914 469.618 146.281 457.281C138.513 449.695 131.253 441.504 125.25 432.438C121.336 426.526 117.909 420.193 115.781 413.406C114.381 408.941 113.941 404.618 113.656 399.969C113.472 396.963 113.343 393.949 113.281 390.938C112.995 377.076 113.968 363.219 115.938 349.5C122.445 304.181 139.404 260.887 160.344 220.406C163.888 213.554 167.601 206.796 171.25 200C173.383 196.027 175.291 191.937 177.656 188.094C180.728 183.102 184.341 178.437 188.375 174.188C196.059 166.094 205.181 159.478 214.875 154C231.352 144.689 249.53 138.594 267.875 134.188C301.071 126.214 335.434 123.559 369.5 122.969Z" fill="#000205" stroke="none"/>
</g>
<g opacity="1" vectornator:layerName="Group 1">
<g opacity="1" vectornator:layerName="Curve 1">
<path d="M347.594 171.875C343.15 171.799 338.697 171.974 334.281 172.344C325.609 173.069 316.956 174.462 308.469 176.375C293.27 179.8 278.457 185.127 264.719 192.5C251.045 199.838 238.468 209.179 227.5 220.156C209.889 237.782 196.523 259.354 187.375 282.469C184.074 290.81 181.312 299.354 179.156 308.062C178.07 312.453 177.051 316.914 176.469 321.406C176.433 321.682 176.631 321.933 176.906 321.969C177.182 322.004 177.433 321.807 177.469 321.531C178.103 316.629 179.246 311.782 180.469 307C182.567 298.792 185.195 290.721 188.312 282.844C197.411 259.857 210.704 238.402 228.219 220.875C239.118 209.968 251.631 200.666 265.219 193.375C278.877 186.046 293.578 180.778 308.688 177.375C318.34 175.201 328.213 173.672 338.094 173.094C346.082 172.626 354.177 172.794 362.062 174.25C371.588 176.009 381.24 179.895 387.5 187.594C398.048 200.565 394.873 218.896 389.094 233.188C388.224 235.338 387.262 237.443 386.25 239.531C384.965 242.184 383.567 244.791 382.094 247.344C373.462 262.295 362.126 275.623 349.719 287.562C329.793 306.736 306.618 322.568 281.969 335.031C271.738 340.204 261.195 344.844 250.438 348.812C247.376 349.942 244.315 351.034 241.219 352.062C240.828 352.192 240.422 352.339 240.031 352.469C239.305 352.71 237.848 352.942 237.344 353.594C237.224 353.749 237.208 354.132 237.156 354.312C237.01 354.818 236.851 355.334 236.719 355.844C236.275 357.555 235.891 359.263 235.562 361C234.32 367.574 233.778 374.319 234.25 381C234.577 385.622 235.426 390.237 236.938 394.625C243.183 412.75 259.84 425.507 276.594 433.438C279.828 434.968 283.138 436.368 286.5 437.594C292.545 439.797 298.826 441.602 305.219 442.438C307.928 442.792 310.912 443.109 313.594 442.375C313.877 442.297 314.046 442.002 313.969 441.719C313.891 441.436 313.595 441.266 313.312 441.344C309.987 442.258 305.766 441.525 302.5 440.938C295.461 439.672 288.595 437.431 282 434.688C263.36 426.932 243.818 413.2 237.531 393.062C235.384 386.184 234.848 378.884 235.281 371.719C235.638 365.826 236.538 359.816 238.281 354.156C238.366 354.127 238.446 354.122 238.531 354.094C238.751 354.02 238.968 353.948 239.188 353.875C239.969 353.615 240.781 353.354 241.562 353.094C244.67 352.061 247.741 350.915 250.812 349.781C263.051 345.266 274.985 339.911 286.531 333.844C310.853 321.063 333.631 305 353.156 285.625C365.253 273.622 376.299 260.21 384.5 245.219C386.123 242.251 387.616 239.225 388.969 236.125C395.595 220.939 399.74 200.985 388.312 186.938C381.583 178.665 371.091 174.689 360.844 173C356.461 172.278 352.037 171.951 347.594 171.875Z" fill="#000205" stroke="none"/>
</g>
<g opacity="1" vectornator:layerName="Curve 2">
<path d="M234.719 252.906C234.46 252.806 234.163 252.929 234.062 253.188C229.056 266.102 224.69 279.273 220.594 292.5C214.971 310.656 210.051 329.053 206.594 347.75C205.018 356.272 203.846 364.908 203.344 373.562C202.877 381.614 203.006 389.745 204.688 397.656C204.749 397.943 205.026 398.123 205.312 398.062C205.599 398.001 205.78 397.693 205.719 397.406C204.055 389.588 203.915 381.581 204.375 373.625C204.893 364.672 206.187 355.783 207.812 346.969C211.19 328.652 216.062 310.596 221.562 292.812C225.647 279.607 230.003 266.456 235 253.562C235.1 253.304 234.978 253.007 234.719 252.906Z" fill="#000205" stroke="none"/>
</g>
</g>
<g opacity="1" vectornator:layerName="Curve 8">
<path d="M344.969 320.156C344.719 320.035 344.434 320.125 344.312 320.375C342.829 323.424 341.648 326.657 340.594 329.875C338.982 334.795 337.757 339.849 337.188 345C336.572 350.567 336.721 356.363 338.5 361.719C339.542 364.855 341.164 367.785 343.375 370.25C345.927 373.095 348.879 374.66 352.781 374.375C354.187 374.272 355.554 373.953 356.875 373.469C358.288 372.951 359.673 372.244 360.906 371.375C361.146 371.206 361.2 370.896 361.031 370.656C360.862 370.417 360.552 370.362 360.312 370.531C358.961 371.488 357.386 372.191 355.812 372.688C354.535 373.091 353.187 373.343 351.844 373.344C348.166 373.345 345.451 371.297 343.25 368.5C341.296 366.018 339.945 363.128 339.094 360.094C337.484 354.357 337.66 348.246 338.562 342.406C339.312 337.556 340.587 332.781 342.219 328.156C343.096 325.67 344.064 323.185 345.219 320.812C345.34 320.563 345.218 320.278 344.969 320.156Z" fill="#000205" stroke="none"/>
</g>
<g opacity="1" vectornator:layerName="Curve 4">
<path d="M374.938 314.156C374.665 314.101 374.399 314.259 374.344 314.531C370.079 335.529 364.894 356.376 359.219 377.031C353.481 397.914 347.208 418.771 339.031 438.844C330.703 459.289 320.597 478.973 309.156 497.844C309.004 498.095 309.062 498.41 309.312 498.562C309.563 498.715 309.91 498.626 310.062 498.375C321.53 479.455 331.658 459.719 340 439.219C348.184 419.105 354.481 398.238 360.219 377.312C365.89 356.632 371.045 335.77 375.312 314.75C375.368 314.478 375.21 314.212 374.938 314.156Z" fill="#000205" stroke="none"/>
</g>
<g opacity="1" vectornator:layerName="Curve 5">
<path d="M431.094 193.844C430.827 193.772 430.541 193.921 430.469 194.188C415.301 250.482 400.136 306.799 384.969 363.094C384.897 363.36 385.077 363.616 385.344 363.688C385.61 363.759 385.866 363.61 385.938 363.344C401.105 307.049 416.27 250.763 431.438 194.469C431.509 194.202 431.36 193.916 431.094 193.844Z" fill="#000205" stroke="none"/>
</g>
<g opacity="1" vectornator:layerName="Curve 6">
<path d="M432.344 292.312C432.121 292.122 431.816 292.121 431.625 292.344C419.274 306.751 406.915 321.188 394.562 335.594C394.382 335.804 394.414 336.101 394.625 336.281C394.836 336.462 395.163 336.461 395.344 336.25C407.699 321.847 420.049 307.464 432.406 293.062C432.597 292.84 432.566 292.503 432.344 292.312Z" fill="#000205" stroke="none"/>
</g>
<g opacity="1" vectornator:layerName="Curve 7">
<path d="M395.281 335.531C395.076 335.344 394.781 335.357 394.594 335.562C394.407 335.768 394.42 336.094 394.625 336.281C401.185 342.252 407.723 348.247 414.281 354.219C414.498 354.416 414.834 354.404 415.031 354.188C415.229 353.971 415.217 353.635 415 353.438C408.437 347.471 401.843 341.499 395.281 335.531Z" fill="#000205" stroke="none"/>
</g>
</g>
<g id="Layer-1" vectornator:layerName="Layer 1">
<path d="M439.311 317.87C441.335 310.247 445.331 304.007 449.978 300.367C453.689 297.459 457.816 296.209 461.686 297.237C470.402 299.552 474.517 312.542 470.876 326.252C467.236 339.962 457.218 349.199 448.502 346.884C439.785 344.57 435.67 331.579 439.311 317.87Z" fill="none" opacity="1" stroke="#000205" stroke-linecap="butt" stroke-linejoin="round" stroke-width="1" vectornator:layerName="Oval 3"/>
<path d="M287.279 368.857C289.303 361.234 293.299 354.994 297.946 351.354C301.657 348.446 305.784 347.196 309.654 348.224C318.37 350.539 322.485 363.529 318.844 377.239C315.204 390.949 305.186 400.186 296.47 397.871C287.753 395.557 283.638 382.566 287.279 368.857Z" fill="none" opacity="1" stroke="#000205" stroke-linecap="butt" stroke-linejoin="round" stroke-width="1" vectornator:layerName="Oval 4"/>
</g>
</svg>
